<?xml version="1.0" encoding="utf-8"?>
<svg width="800px" height="800px" viewBox="0 0 24 24" fill="none" xmlns="http://www.w3.org/2000/svg" xmlns:bx="https://boxy-svg.com">
  <defs>
    <bx:guide x="6.662372127015555" y="17.346351595839366" angle="0"/>
    <bx:guide x="17.522" y="6.526" angle="180"/>
    <bx:guide x="15.550780754473188" y="15.568669870347842" angle="90"/>
    <path style="fill: rgb(216, 216, 216); stroke: rgb(0, 0, 0);" d="M 6.585 17.308 L 17.213 6.217" bx:d="M 6.585 17.308 R 17.213 6.217 1@a05dfbab"/>
    <path style="fill: rgb(216, 216, 216); stroke: rgb(0, 0, 0);" d="M 6.701 18.312 C 6.701 18.312 17.099 20.261 18.836 18.312 C 20.473 16.475 17.599 7.608 17.599 7.608" bx:d="M 6.701 18.312 R 18.836 18.312 R 17.599 7.608 1@6066fb20"/>
    <path style="fill: rgb(216, 216, 216); stroke: rgb(0, 0, 0);" d="M 6.585 17.23 C 6.585 17.23 16.125 18.944 17.831 17.076 C 19.489 15.261 17.019 6.487 17.019 6.487" bx:d="M 6.585 17.23 R 17.831 17.076 R 17.019 6.487 1@8c2411b4"/>
    <path style="fill: rgb(216, 216, 216); stroke: rgb(0, 0, 0);" d="M 6.585 17.887 C 6.585 17.887 6.8 18.008 7.087 18.081 C 8.515 18.441 18.746 21.316 20.266 19.742 C 21.332 18.638 19.8 15.167 19.222 13.289 C 18.739 11.72 18.595 9.781 17.29 9.154 C 15.204 8.152 7.493 9.746 5.967 11.897 C 4.718 13.658 5.077 18.216 6.74 19.665 C 9.055 21.681 20.38 21.339 21.85 19.085 C 23.112 17.151 17.754 8.728 17.754 8.728" bx:d="M 6.585 17.887 R 7.087 18.081 R 20.266 19.742 R 19.222 13.289 R 17.29 9.154 R 5.967 11.897 R 6.74 19.665 R 21.85 19.085 R 17.754 8.728 1@f7ff6ae6"/>
  </defs>
  <path d="M 0.5 0.521 L 0.5 12.001 L 0.5 23.48 L 12 23.48 L 23.5 23.48 L 23.5 12.001 L 23.5 0.521 L 12 0.521 L 0.5 0.521 Z" style="stroke-linejoin: round; paint-order: fill; fill: rgb(255, 0, 0); fill-rule: nonzero; fill-opacity: 0; stroke: rgb(255, 92, 0);"/>
  <path d="M 3.377 5.082 C 3 5.62 3 7.219 3 10.417 L 3 11.991 C 3 17.629 7.239 20.366 9.898 21.527 C 10.62 21.842 10.981 22 12 22 C 13.019 22 13.38 21.842 14.101 21.527 C 16.761 20.366 21 17.629 21 11.991 L 21 10.417 C 21 7.219 21 5.62 20.622 5.082 C 20.245 4.545 18.742 4.03 15.735 3.001 L 15.162 2.805 C 13.595 2.268 12.811 2 12 2 C 11.189 2 10.405 2.268 8.838 2.805 L 8.265 3.001 C 5.258 4.03 3.755 4.545 3.377 5.082 Z" style="fill: rgb(255, 182, 140);"/>
  <ellipse style="fill: rgb(255, 92, 0);" cx="12" cy="12" rx="4.692" ry="4.692"/>
</svg>