<?xml version="1.0" encoding="UTF-8" standalone="no"?>
<svg
   width="800"
   height="798.6333"
   viewBox="0 0 24 23.958999"
   fill="none"
   version="1.1"
   id="svg6"
   xmlns="http://www.w3.org/2000/svg"
   xmlns:svg="http://www.w3.org/2000/svg"
   xmlns:bx="https://boxy-svg.com">
  <defs
     id="defs4">
    <bx:guide
       x="6.662372127015555"
       y="17.346351595839366"
       angle="0" />
    <bx:guide
       x="17.522"
       y="6.526"
       angle="180" />
    <bx:guide
       x="15.550780754473188"
       y="15.568669870347842"
       angle="90" />
  </defs>
  <path
     d="M 0.5,0.5 V 11.98 23.459 H 12 23.5 V 11.98 0.5 H 12 Z"
     style="fill:#ff0000;fill-opacity:0;fill-rule:nonzero;stroke:#ff5c00;stroke-linejoin:round;paint-order:fill"
     id="path5" />
  <path
     d="M 3.377,5.061 C 3,5.599 3,7.198 3,10.396 v 1.574 c 0,5.638 4.239,8.375 6.898,9.536 0.722,0.315 1.083,0.473 2.102,0.473 1.019,0 1.38,-0.158 2.101,-0.473 C 16.761,20.345 21,17.608 21,11.97 V 10.396 C 21,7.198 21,5.599 20.622,5.061 20.245,4.524 18.742,4.009 15.735,2.98 L 15.162,2.784 C 13.595,2.247 12.811,1.979 12,1.979 c -0.811,0 -1.595,0.268 -3.162,0.805 L 8.265,2.98 C 5.258,4.009 3.755,4.524 3.377,5.061 Z"
     style="fill:#ffb68c"
     id="path6" />
  <path
     style="font-style:italic;font-weight:bold;font-size:20px;font-family:Calibri;-inkscape-font-specification:'Calibri Bold Italic';fill:#ff5c00;stroke-width:0.03"
     d="m 14.573242,17.41357 q -0.908203,0.585938 -2.03125,0.957032 -1.123047,0.361328 -2.441406,0.361328 -0.9277344,0 -1.7187501,-0.205078 -0.78125,-0.205079 -1.3476562,-0.605469 -0.5566406,-0.400391 -0.8789063,-0.976563 -0.3125,-0.585937 -0.3125,-1.33789 0,-0.605469 0.1855469,-1.181641 0.1855469,-0.585937 0.5859375,-1.123047 0.4101563,-0.537109 1.0449219,-1.02539 0.6445312,-0.498047 1.5625,-0.957032 Q 8.9775391,10.880367 8.8115234,10.489742 8.6455078,10.099117 8.5478516,9.7670859 8.4599609,9.4350547 8.4111328,9.1616172 q -0.039063,-0.2734375 -0.039063,-0.46875 0,-0.3320313 0.068359,-0.7128906 Q 8.5185547,7.5893516 8.7041016,7.2084922 8.8994141,6.8178672 9.2216797,6.4663047 9.5537109,6.1049766 10.051758,5.8315391 10.55957,5.5581016 11.25293,5.3920859 q 0.693359,-0.1660156 1.630859,-0.1660156 1.064453,0 1.787109,0.2050781 0.732422,0.1953125 1.171875,0.5273438 0.449219,0.3222656 0.634766,0.7519531 0.195313,0.4199219 0.195313,0.859375 0,0.5761719 -0.195313,1.1132813 -0.195312,0.5371093 -0.664062,1.0546875 -0.46875,0.5175779 -1.25,1.0351559 -0.78125,0.517578 -1.94336,1.054688 0.253906,0.380859 0.498047,0.71289 0.253906,0.332032 0.507813,0.644532 0.253906,0.3125 0.527343,0.625 0.283203,0.302734 0.576172,0.615234 0.371094,-0.46875 0.625,-0.986328 0.253906,-0.517578 0.351563,-0.898438 0.09766,-0.390625 0.117187,-0.546875 0.0293,-0.166015 0.08789,-0.253906 0.05859,-0.08789 0.195312,-0.136719 0.136719,-0.04883 0.361328,-0.06836 0.234375,-0.0293 0.595704,-0.0293 0.55664,0 0.820312,0.06836 0.273438,0.05859 0.273438,0.234375 0,0.166015 -0.09766,0.585937 -0.08789,0.410156 -0.234375,0.869141 -0.146484,0.449218 -0.380859,0.927734 -0.224609,0.46875 -0.498047,0.898438 -0.273437,0.419921 -0.595703,0.751953 0.46875,0.419922 0.78125,0.625 0.322266,0.195312 0.585937,0.195312 0.195313,0 0.263672,0.06836 0.06836,0.06836 0.06836,0.263671 0,0.09766 -0.03906,0.322266 -0.0293,0.214844 -0.07813,0.439453 -0.04883,0.22461 -0.117187,0.429688 -0.06836,0.195312 -0.15625,0.283203 -0.08789,0.08789 -0.302735,0.15625 -0.205078,0.06836 -0.458984,0.06836 -0.175781,0 -0.410156,-0.07813 -0.234375,-0.06836 -0.517578,-0.224609 -0.283204,-0.15625 -0.634766,-0.390625 -0.351563,-0.244141 -0.761719,-0.585938 z m -3.085937,-7.070312 q 0.810547,-0.3710939 1.298828,-0.6835939 0.498047,-0.3222657 0.771484,-0.6152344 0.273438,-0.2929688 0.361328,-0.546875 0.09766,-0.2636719 0.09766,-0.5175781 0,-0.1367188 -0.05859,-0.2832032 -0.05859,-0.15625 -0.205078,-0.2832031 -0.146485,-0.1269531 -0.390625,-0.2050781 -0.244141,-0.078125 -0.615235,-0.078125 -0.546875,0 -0.898437,0.15625 -0.351563,0.15625 -0.556641,0.390625 -0.205078,0.2246094 -0.283203,0.4980469 -0.07813,0.2636718 -0.07813,0.4882812 0,0.1367188 0.0293,0.3125 0.0293,0.1660156 0.08789,0.3808594 0.06836,0.2050781 0.175781,0.4492187 0.107422,0.2441406 0.263672,0.5371096 z m -1.16211,2.617187 q -0.4492184,0.244141 -0.7910153,0.517578 -0.3417969,0.273438 -0.5664063,0.566407 -0.2148437,0.283203 -0.3320312,0.605468 -0.1074219,0.322266 -0.1074219,0.664063 0,0.273437 0.097656,0.537109 0.1074218,0.253907 0.3417968,0.458985 0.234375,0.195312 0.6152344,0.322265 0.3808594,0.117188 0.9472655,0.117188 0.302735,0 0.615235,-0.04883 0.322265,-0.05859 0.625,-0.15625 0.3125,-0.09766 0.585937,-0.22461 0.283203,-0.136718 0.507813,-0.302734 -0.351563,-0.361328 -0.683594,-0.722656 -0.332031,-0.371094 -0.654297,-0.742188 -0.3125,-0.380859 -0.615234,-0.771484 -0.302735,-0.400391 -0.585938,-0.820313 z M 5.3056641,5.8608359 Z"
     id="text6"
     aria-label="&amp;" />
</svg>
