<?xml version="1.0" encoding="utf-8"?>
<svg width="800px" height="800px" viewBox="0 0 24 24" fill="none" version="1.1" id="svg6" xmlns="http://www.w3.org/2000/svg" xmlns:bx="https://boxy-svg.com"><defs id="defs4"><bx:guide x="6.662372127015555" y="17.346351595839366" angle="0"/><bx:guide x="17.522" y="6.526" angle="180"/><bx:guide x="15.550780754473188" y="15.568669870347842" angle="90"/><path style="fill: rgb(216, 216, 216); stroke: rgb(0, 0, 0);" d="M 6.585 17.308 L 17.213 6.217" bx:d="M 6.585 17.308 R 17.213 6.217 1@a05dfbab" id="path1"/><path style="fill: rgb(216, 216, 216); stroke: rgb(0, 0, 0);" d="M 6.701 18.312 C 6.701 18.312 17.099 20.261 18.836 18.312 C 20.473 16.475 17.599 7.608 17.599 7.608" bx:d="M 6.701 18.312 R 18.836 18.312 R 17.599 7.608 1@6066fb20" id="path2"/><path style="fill: rgb(216, 216, 216); stroke: rgb(0, 0, 0);" d="M 6.585 17.23 C 6.585 17.23 16.125 18.944 17.831 17.076 C 19.489 15.261 17.019 6.487 17.019 6.487" bx:d="M 6.585 17.23 R 17.831 17.076 R 17.019 6.487 1@8c2411b4" id="path3"/><path style="fill: rgb(216, 216, 216); stroke: rgb(0, 0, 0);" d="M 6.585 17.887 C 6.585 17.887 6.8 18.008 7.087 18.081 C 8.515 18.441 18.746 21.316 20.266 19.742 C 21.332 18.638 19.8 15.167 19.222 13.289 C 18.739 11.72 18.595 9.781 17.29 9.154 C 15.204 8.152 7.493 9.746 5.967 11.897 C 4.718 13.658 5.077 18.216 6.74 19.665 C 9.055 21.681 20.38 21.339 21.85 19.085 C 23.112 17.151 17.754 8.728 17.754 8.728" bx:d="M 6.585 17.887 R 7.087 18.081 R 20.266 19.742 R 19.222 13.289 R 17.29 9.154 R 5.967 11.897 R 6.74 19.665 R 21.85 19.085 R 17.754 8.728 1@f7ff6ae6" id="path4"/><bx:export><bx:file format="svg" path="AnyExpression.svg"/></bx:export><bx:guide x="11.249236249668616" y="17.329273990769444" angle="0"/></defs><path d="M 0.5 0.521 L 0.5 12.001 L 0.5 23.48 L 12 23.48 L 23.5 23.48 L 23.5 12.001 L 23.5 0.521 L 12 0.521 L 0.5 0.521 Z" style="stroke-linejoin: round; paint-order: fill; fill: rgb(255, 0, 0); fill-rule: nonzero; fill-opacity: 0; stroke: rgb(61, 198, 175);" id="path5"/><path d="M 9.644 15.429 C 9.644 14.483 9.814 13.679 10.154 13.018 C 10.494 12.357 11.135 11.678 12.078 10.982 C 13.178 10.142 13.944 9.432 14.377 8.852 C 14.809 8.271 15.024 7.587 15.024 6.802 C 15.024 5.944 14.723 5.293 14.121 4.846 C 13.519 4.399 12.667 4.176 11.568 4.176 C 10.652 4.176 9.84 4.27 9.133 4.457 C 8.425 4.645 7.706 4.891 6.972 5.194 L 5.755 3.426 C 6.645 3.015 7.588 2.702 8.582 2.488 C 9.577 2.274 10.625 2.167 11.725 2.167 C 13.82 2.167 15.431 2.56 16.556 3.346 C 17.682 4.131 18.245 5.23 18.245 6.641 C 18.245 7.427 18.114 8.101 17.853 8.664 C 17.591 9.227 17.185 9.763 16.635 10.272 C 16.085 10.781 15.417 11.348 14.631 11.973 C 13.977 12.455 13.479 12.879 13.139 13.246 C 12.799 13.612 12.563 13.983 12.432 14.358 C 12.301 14.733 12.236 15.17 12.236 15.671 L 12.236 16.18 L 9.644 16.18 L 9.644 15.429 Z M 8.818 20.091 C 8.818 19.502 9.014 19.065 9.407 18.779 C 9.8 18.492 10.337 18.35 11.018 18.35 C 11.672 18.35 12.203 18.489 12.608 18.765 C 13.015 19.042 13.217 19.484 13.217 20.091 C 13.217 20.699 13.008 21.141 12.589 21.418 C 12.17 21.694 11.646 21.833 11.018 21.833 C 10.337 21.833 9.8 21.69 9.407 21.404 C 9.014 21.118 8.818 20.681 8.818 20.091 Z" style="fill: rgb(61, 198, 175);"/></svg>