<?xml version="1.0" encoding="utf-8"?>
<svg width="800px" height="800px" viewBox="0 0 24 24" fill="none" version="1.1" id="svg6" xmlns="http://www.w3.org/2000/svg" xmlns:bx="https://boxy-svg.com">
  <defs id="defs4">
    <bx:guide x="6.662372127015555" y="17.346351595839366" angle="0"/>
    <bx:guide x="17.522" y="6.526" angle="180"/>
    <bx:guide x="15.550780754473188" y="15.568669870347842" angle="90"/>
    <path style="fill: rgb(216, 216, 216); stroke: rgb(0, 0, 0);" d="M 6.585 17.308 L 17.213 6.217" bx:d="M 6.585 17.308 R 17.213 6.217 1@a05dfbab" id="path1"/>
    <path style="fill: rgb(216, 216, 216); stroke: rgb(0, 0, 0);" d="M 6.701 18.312 C 6.701 18.312 17.099 20.261 18.836 18.312 C 20.473 16.475 17.599 7.608 17.599 7.608" bx:d="M 6.701 18.312 R 18.836 18.312 R 17.599 7.608 1@6066fb20" id="path2"/>
    <path style="fill: rgb(216, 216, 216); stroke: rgb(0, 0, 0);" d="M 6.585 17.23 C 6.585 17.23 16.125 18.944 17.831 17.076 C 19.489 15.261 17.019 6.487 17.019 6.487" bx:d="M 6.585 17.23 R 17.831 17.076 R 17.019 6.487 1@8c2411b4" id="path3"/>
    <path style="fill: rgb(216, 216, 216); stroke: rgb(0, 0, 0);" d="M 6.585 17.887 C 6.585 17.887 6.8 18.008 7.087 18.081 C 8.515 18.441 18.746 21.316 20.266 19.742 C 21.332 18.638 19.8 15.167 19.222 13.289 C 18.739 11.72 18.595 9.781 17.29 9.154 C 15.204 8.152 7.493 9.746 5.967 11.897 C 4.718 13.658 5.077 18.216 6.74 19.665 C 9.055 21.681 20.38 21.339 21.85 19.085 C 23.112 17.151 17.754 8.728 17.754 8.728" bx:d="M 6.585 17.887 R 7.087 18.081 R 20.266 19.742 R 19.222 13.289 R 17.29 9.154 R 5.967 11.897 R 6.74 19.665 R 21.85 19.085 R 17.754 8.728 1@f7ff6ae6" id="path4"/>
    <bx:export>
      <bx:file format="svg" path="BoolExpression.svg"/>
    </bx:export>
    <bx:guide x="11.249236249668616" y="17.329273990769444" angle="0"/>
  </defs>
  <path d="M 0.5 0.521 L 0.5 12.001 L 0.5 23.48 L 12 23.48 L 23.5 23.48 L 23.5 12.001 L 23.5 0.521 L 12 0.521 L 0.5 0.521 Z" style="stroke-linejoin: round; paint-order: fill; fill: rgb(255, 0, 0); fill-rule: nonzero; fill-opacity: 0; stroke: rgb(61, 198, 175);" id="path5"/>
  <path d="M 4.172 13.937 L 9.527 18.845 L 19.828 5.155" style="stroke-width: 3px; stroke: rgb(61, 198, 175);" id="path6"/>
</svg>