<?xml version="1.0" encoding="utf-8"?>
<svg width="800px" height="800px" viewBox="0 0 24 24" fill="none" xmlns="http://www.w3.org/2000/svg" xmlns:bx="https://boxy-svg.com"><defs><bx:guide x="6.662372127015555" y="17.346351595839366" angle="0"/><bx:guide x="17.522" y="6.526" angle="180"/><bx:guide x="15.550780754473188" y="15.568669870347842" angle="90"/><path style="fill: rgb(216, 216, 216); stroke: rgb(0, 0, 0);" d="M 6.585 17.308 L 17.213 6.217" bx:d="M 6.585 17.308 R 17.213 6.217 1@a05dfbab"/><path style="fill: rgb(216, 216, 216); stroke: rgb(0, 0, 0);" d="M 6.701 18.312 C 6.701 18.312 17.099 20.261 18.836 18.312 C 20.473 16.475 17.599 7.608 17.599 7.608" bx:d="M 6.701 18.312 R 18.836 18.312 R 17.599 7.608 1@6066fb20"/><path style="fill: rgb(216, 216, 216); stroke: rgb(0, 0, 0);" d="M 6.585 17.23 C 6.585 17.23 16.125 18.944 17.831 17.076 C 19.489 15.261 17.019 6.487 17.019 6.487" bx:d="M 6.585 17.23 R 17.831 17.076 R 17.019 6.487 1@8c2411b4"/><path style="fill: rgb(216, 216, 216); stroke: rgb(0, 0, 0);" d="M 6.585 17.887 C 6.585 17.887 6.8 18.008 7.087 18.081 C 8.515 18.441 18.746 21.316 20.266 19.742 C 21.332 18.638 19.8 15.167 19.222 13.289 C 18.739 11.72 18.595 9.781 17.29 9.154 C 15.204 8.152 7.493 9.746 5.967 11.897 C 4.718 13.658 5.077 18.216 6.74 19.665 C 9.055 21.681 20.38 21.339 21.85 19.085 C 23.112 17.151 17.754 8.728 17.754 8.728" bx:d="M 6.585 17.887 R 7.087 18.081 R 20.266 19.742 R 19.222 13.289 R 17.29 9.154 R 5.967 11.897 R 6.74 19.665 R 21.85 19.085 R 17.754 8.728 1@f7ff6ae6"/><bx:export><bx:file format="svg" path="NumericExpression.svg"/></bx:export></defs><path d="M 0.5 0.521 L 0.5 12.001 L 0.5 23.48 L 12 23.48 L 23.5 23.48 L 23.5 12.001 L 23.5 0.521 L 12 0.521 L 0.5 0.521 Z" style="stroke-linejoin: round; paint-order: fill; fill: rgb(255, 0, 0); fill-rule: nonzero; fill-opacity: 0; stroke: rgb(61, 198, 175);"/><path d="M -1.021 20.912 L -3.373 20.912 L -3.373 7.304 Q -3.373 6.296 -3.331 5.414 Q -3.289 4.532 -3.261 3.636 Q -3.681 4.168 -4.633 5.064 L -6.481 6.744 L -7.797 5.26 L -3.037 0.92 L -1.021 0.92 Z M 17.658 20.912 L 6.878 20.912 L 6.878 19.092 L 11.19 13.436 Q 12.478 11.784 13.262 10.566 Q 14.046 9.348 14.396 8.256 Q 14.746 7.164 14.746 5.848 Q 14.746 4.42 13.976 3.58 Q 13.206 2.74 11.862 2.74 Q 10.798 2.74 9.972 3.118 Q 9.146 3.496 8.278 4.28 L 7.018 2.656 Q 8.138 1.648 9.314 1.144 Q 10.49 0.64 11.974 0.64 Q 14.382 0.64 15.768 2.04 Q 17.154 3.44 17.154 5.736 Q 17.154 7.332 16.706 8.662 Q 16.258 9.992 15.39 11.308 Q 14.522 12.624 13.262 14.192 L 9.706 18.644 L 9.706 18.756 L 17.658 18.756 Z M 32.754 5.54 Q 32.754 7.388 31.83 8.634 Q 30.906 9.88 29.198 10.412 L 29.198 10.524 Q 31.158 10.86 32.166 12.12 Q 33.174 13.38 33.174 15.368 Q 33.174 17.972 31.606 19.582 Q 30.038 21.192 27.042 21.192 Q 25.698 21.192 24.606 20.982 Q 23.514 20.772 22.506 20.296 L 22.506 17.972 Q 23.514 18.56 24.648 18.854 Q 25.782 19.148 26.902 19.148 Q 28.862 19.148 29.786 18.084 Q 30.71 17.02 30.71 15.256 Q 30.71 11.616 26.174 11.616 L 24.886 11.616 L 24.886 9.572 L 26.258 9.572 Q 28.218 9.572 29.296 8.522 Q 30.374 7.472 30.374 5.764 Q 30.374 4.308 29.604 3.496 Q 28.834 2.684 27.434 2.684 Q 26.258 2.684 25.39 3.076 Q 24.522 3.468 23.626 4.196 L 22.478 2.544 Q 23.57 1.592 24.816 1.116 Q 26.062 0.64 27.63 0.64 Q 30.094 0.64 31.424 1.984 Q 32.754 3.328 32.754 5.54 Z" transform="matrix(0.450136, 0, 0, 0.573758, 5.877592, 5.589666)" style="fill: rgb(61, 198, 175);"/></svg>