<?xml version="1.0" encoding="utf-8"?>
<svg width="800px" height="800px" viewBox="0 0 24 24" fill="none" xmlns="http://www.w3.org/2000/svg" xmlns:bx="https://boxy-svg.com">
  <defs>
    <bx:guide x="6.662372127015555" y="17.346351595839366" angle="0"/>
    <bx:guide x="17.522" y="6.526" angle="180"/>
    <bx:guide x="15.550780754473188" y="15.568669870347842" angle="90"/>
    <path style="fill: rgb(216, 216, 216); stroke: rgb(0, 0, 0);" d="M 6.585 17.308 L 17.213 6.217" bx:d="M 6.585 17.308 R 17.213 6.217 1@a05dfbab"/>
    <path style="fill: rgb(216, 216, 216); stroke: rgb(0, 0, 0);" d="M 6.701 18.312 C 6.701 18.312 17.099 20.261 18.836 18.312 C 20.473 16.475 17.599 7.608 17.599 7.608" bx:d="M 6.701 18.312 R 18.836 18.312 R 17.599 7.608 1@6066fb20"/>
    <path style="fill: rgb(216, 216, 216); stroke: rgb(0, 0, 0);" d="M 6.585 17.23 C 6.585 17.23 16.125 18.944 17.831 17.076 C 19.489 15.261 17.019 6.487 17.019 6.487" bx:d="M 6.585 17.23 R 17.831 17.076 R 17.019 6.487 1@8c2411b4"/>
    <path style="fill: rgb(216, 216, 216); stroke: rgb(0, 0, 0);" d="M 6.585 17.887 C 6.585 17.887 6.8 18.008 7.087 18.081 C 8.515 18.441 18.746 21.316 20.266 19.742 C 21.332 18.638 19.8 15.167 19.222 13.289 C 18.739 11.72 18.595 9.781 17.29 9.154 C 15.204 8.152 7.493 9.746 5.967 11.897 C 4.718 13.658 5.077 18.216 6.74 19.665 C 9.055 21.681 20.38 21.339 21.85 19.085 C 23.112 17.151 17.754 8.728 17.754 8.728" bx:d="M 6.585 17.887 R 7.087 18.081 R 20.266 19.742 R 19.222 13.289 R 17.29 9.154 R 5.967 11.897 R 6.74 19.665 R 21.85 19.085 R 17.754 8.728 1@f7ff6ae6"/>
  </defs>
  <path d="M 0.5 0.5 L 0.5 11.98 L 0.5 23.459 L 12 23.459 L 23.5 23.459 L 23.5 11.98 L 23.5 0.5 L 12 0.5 L 0.5 0.5 Z" style="stroke-linejoin: round; paint-order: fill; fill: rgb(255, 0, 0); fill-rule: nonzero; fill-opacity: 0; stroke: rgb(255, 92, 0);"/>
  <ellipse style="stroke: rgb(255, 92, 0); fill: rgb(255, 92, 0); transform-origin: 0px 0px;" cx="7" cy="17" rx="4" ry="4"/>
  <ellipse style="stroke: rgb(255, 92, 0); fill: rgb(255, 92, 0);" cx="17" cy="7" rx="4" ry="4"/>
  <path style="transform-origin: -7.126px 0px; stroke: rgb(255, 92, 0); stroke-linejoin: round; stroke-linecap: round; stroke-width: 2px;" d="M 7 17 C 9.667 16.333 13.056 16.944 15 15 C 16.944 13.056 16.333 9.667 17 7"/>
</svg>