<?xml version="1.0" encoding="utf-8"?>
<svg width="800px" height="800px" viewBox="0 0 24 24" fill="none" xmlns="http://www.w3.org/2000/svg" xmlns:bx="https://boxy-svg.com"><defs><bx:guide x="6.662372127015555" y="17.346351595839366" angle="0"/><bx:guide x="17.522" y="6.526" angle="180"/><bx:guide x="15.550780754473188" y="15.568669870347842" angle="90"/><path style="fill: rgb(216, 216, 216); stroke: rgb(0, 0, 0);" d="M 6.585 17.308 L 17.213 6.217" bx:d="M 6.585 17.308 R 17.213 6.217 1@a05dfbab"/><path style="fill: rgb(216, 216, 216); stroke: rgb(0, 0, 0);" d="M 6.701 18.312 C 6.701 18.312 17.099 20.261 18.836 18.312 C 20.473 16.475 17.599 7.608 17.599 7.608" bx:d="M 6.701 18.312 R 18.836 18.312 R 17.599 7.608 1@6066fb20"/><path style="fill: rgb(216, 216, 216); stroke: rgb(0, 0, 0);" d="M 6.585 17.23 C 6.585 17.23 16.125 18.944 17.831 17.076 C 19.489 15.261 17.019 6.487 17.019 6.487" bx:d="M 6.585 17.23 R 17.831 17.076 R 17.019 6.487 1@8c2411b4"/><path style="fill: rgb(216, 216, 216); stroke: rgb(0, 0, 0);" d="M 6.585 17.887 C 6.585 17.887 6.8 18.008 7.087 18.081 C 8.515 18.441 18.746 21.316 20.266 19.742 C 21.332 18.638 19.8 15.167 19.222 13.289 C 18.739 11.72 18.595 9.781 17.29 9.154 C 15.204 8.152 7.493 9.746 5.967 11.897 C 4.718 13.658 5.077 18.216 6.74 19.665 C 9.055 21.681 20.38 21.339 21.85 19.085 C 23.112 17.151 17.754 8.728 17.754 8.728" bx:d="M 6.585 17.887 R 7.087 18.081 R 20.266 19.742 R 19.222 13.289 R 17.29 9.154 R 5.967 11.897 R 6.74 19.665 R 21.85 19.085 R 17.754 8.728 1@f7ff6ae6"/><bx:export><bx:file format="svg" path="StrExpression.svg"/></bx:export></defs><path d="M 0.5 0.521 L 0.5 12.001 L 0.5 23.48 L 12 23.48 L 23.5 23.48 L 23.5 12.001 L 23.5 0.521 L 12 0.521 L 0.5 0.521 Z" style="stroke-linejoin: round; paint-order: fill; fill: rgb(255, 0, 0); fill-rule: nonzero; fill-opacity: 0; stroke: rgb(61, 198, 175);"/><path d="M 7.1 18.598 L 6.479 14.501 L 4.455 14.501 L 3.833 18.598 L 2.931 18.598 L 4.986 5.402 L 5.938 5.402 L 8.002 18.598 L 7.1 18.598 Z M 5.677 8.816 C 5.644 8.533 5.604 8.21 5.557 7.847 C 5.51 7.485 5.477 7.168 5.457 6.897 C 5.43 7.217 5.397 7.543 5.356 7.875 C 5.316 8.207 5.276 8.521 5.236 8.816 L 4.635 13.043 L 6.288 13.043 L 5.677 8.816 Z M 12.14 5.421 C 12.848 5.421 13.386 5.679 13.754 6.196 C 14.121 6.712 14.305 7.518 14.305 8.613 C 14.305 9.45 14.208 10.124 14.014 10.634 C 13.82 11.145 13.543 11.474 13.182 11.622 L 13.182 11.695 C 13.597 11.855 13.916 12.185 14.139 12.683 C 14.363 13.181 14.475 13.898 14.475 14.833 C 14.475 15.989 14.298 16.906 13.944 17.583 C 13.59 18.26 13.096 18.598 12.461 18.598 L 10.417 18.598 L 10.417 5.421 L 12.14 5.421 Z M 12.19 11.05 C 12.638 11.05 12.955 10.862 13.142 10.487 C 13.329 10.111 13.423 9.542 13.423 8.779 C 13.423 7.438 12.999 6.768 12.15 6.768 L 11.278 6.768 L 11.278 11.05 L 12.19 11.05 Z M 11.278 12.397 L 11.278 17.232 L 12.341 17.232 C 12.775 17.232 13.091 17.017 13.288 16.586 C 13.485 16.156 13.583 15.54 13.583 14.741 C 13.583 13.99 13.475 13.412 13.258 13.006 C 13.041 12.6 12.705 12.397 12.251 12.397 L 11.278 12.397 Z M 19.555 6.639 C 19.148 6.639 18.809 6.879 18.538 7.358 C 18.268 7.838 18.066 8.484 17.932 9.296 C 17.798 10.108 17.732 11.013 17.732 12.009 C 17.732 13.67 17.894 14.978 18.218 15.931 C 18.542 16.885 19.001 17.361 19.596 17.361 C 19.823 17.361 20.041 17.315 20.252 17.223 C 20.462 17.131 20.664 17.011 20.858 16.863 L 20.858 18.266 C 20.477 18.61 20.02 18.782 19.485 18.782 C 18.924 18.782 18.445 18.509 18.047 17.961 C 17.65 17.414 17.347 16.635 17.14 15.627 C 16.933 14.618 16.83 13.406 16.83 11.991 C 16.83 10.723 16.932 9.576 17.135 8.549 C 17.339 7.521 17.641 6.709 18.042 6.113 C 18.443 5.516 18.944 5.218 19.545 5.218 C 20.107 5.218 20.614 5.451 21.069 5.919 L 20.748 7.266 C 20.574 7.082 20.389 6.931 20.192 6.814 C 19.995 6.697 19.783 6.639 19.555 6.639 Z" style="fill: rgb(61, 198, 175);"/></svg>